<svg width="653" height="115" viewBox="0 0 653 115" fill="none" xmlns="http://www.w3.org/2000/svg">
<path d="M22.4 28.6C30 28.6 33.8 25.0667 33.8 18V11.2C33.8 4.40002 36.1333 1.00002 40.8 1.00002C45.7333 1.00002 48.2 4.06669 48.2 10.2V77.8C48.2 82.6 46.8666 86.0667 44.2 88.2C41.6666 90.3334 37.8666 91.4 32.8 91.4H16.2C10.8666 91.4 6.86662 90.3334 4.19995 88.2C1.53328 85.9334 0.199951 82.2667 0.199951 77.2L0.399951 42.2C0.399951 33.2667 5.59995 28.7334 16 28.6H22.4ZM14.8 72.2C14.8 80.4667 17.4666 84.6 22.8 84.6H25.4C31 84.6 33.8 80.5333 33.8 72.4V48.8C33.8 40 31.2 35.6 26 35.6H23C17.6666 35.6 15 39.6667 15 47.8L14.8 72.2Z" fill="white"/>
<path d="M76.1968 11.2C71.1302 11.2 68.5968 9.40002 68.5968 5.80002C68.5968 2.20002 71.1302 0.400024 76.1968 0.400024C80.9968 0.400024 83.3968 2.20002 83.3968 5.80002C83.3968 9.40002 80.9968 11.2 76.1968 11.2ZM76.1968 91.8C71.2635 91.8 68.7968 88.7334 68.7968 82.6V38.4C68.7968 32.1334 71.2635 29 76.1968 29C80.8635 29 83.1968 32 83.1968 38V82.4C83.1968 88.6667 80.8635 91.8 76.1968 91.8Z" fill="white"/>
<path d="M130.12 108C134.92 108 137.32 106.133 137.32 102.4V97.2C137.32 93.0667 134.854 91 129.92 91H119.52C114.187 91 110.254 90 107.72 88C105.187 85.8667 103.92 82.4 103.92 77.6V42.2C103.92 37.9334 105.187 34.6 107.72 32.2C110.254 29.8 114.187 28.6 119.52 28.6H136.52C141.454 28.6 145.187 29.8 147.72 32.2C150.387 34.6 151.72 37.9334 151.72 42.2V101.2C151.72 106 150.387 109.467 147.72 111.6C145.187 113.733 141.52 114.8 136.72 114.8H110.12C105.987 114.8 103.92 113.733 103.92 111.6C103.92 109.2 106.054 108 110.32 108H130.12ZM137.32 71.8V47.6C137.32 39.6 134.52 35.6 128.92 35.6H126.32C121.12 35.6 118.52 39.8667 118.52 48.4V72C118.52 80.1334 121.187 84.2 126.52 84.2H129.52C134.72 84.2 137.32 80.0667 137.32 71.8Z" fill="white"/>
<path d="M179.517 11.2C174.45 11.2 171.917 9.40002 171.917 5.80002C171.917 2.20002 174.45 0.400024 179.517 0.400024C184.317 0.400024 186.717 2.20002 186.717 5.80002C186.717 9.40002 184.317 11.2 179.517 11.2ZM179.517 91.8C174.584 91.8 172.117 88.7334 172.117 82.6V38.4C172.117 32.1334 174.584 29 179.517 29C184.184 29 186.517 32 186.517 38V82.4C186.517 88.6667 184.184 91.8 179.517 91.8Z" fill="white"/>
<path d="M214.441 1.00002C219.107 1.00002 221.441 4.46669 221.441 11.4V18C221.441 25.0667 225.307 28.6 233.041 28.6H236.841C242.174 28.6 244.841 29.7334 244.841 32C244.841 34.4 242.174 35.6 236.841 35.6H233.041C225.307 35.6 221.441 40.2667 221.441 49.6V71.6C221.441 79.4667 225.241 83.4 232.841 83.4H237.641C242.841 83.4 245.441 84.6667 245.441 87.2C245.441 89.7334 243.041 91 238.241 91H221.641C211.907 91 207.041 86.1334 207.041 76.4V10.4C207.041 4.13335 209.507 1.00002 214.441 1.00002Z" fill="white"/>
<path d="M283.836 24.8H266.836C261.769 24.8 259.236 23.6 259.236 21.2C259.236 18.9334 261.636 17.8 266.436 17.8H290.236C300.103 17.8 305.036 22.8667 305.036 33V76.6C305.036 86.2 300.103 91 290.236 91H273.436C262.636 91 257.236 87.0667 257.236 79.2V53.2C257.236 49.8667 258.503 47.2 261.036 45.2C263.569 43.0667 267.503 42 272.836 42H283.436C288.236 42 290.636 39.6 290.636 34.8V32.8C290.636 27.4667 288.369 24.8 283.836 24.8ZM271.436 58.6V73.8C271.436 80.7334 274.703 84.2 281.236 84.2C287.503 84.2 290.636 80.7334 290.636 73.8V58.6C290.636 52.0667 287.503 48.8 281.236 48.8C274.703 48.8 271.436 52.0667 271.436 58.6Z" fill="white"/>
<path d="M332.233 92C327.433 92 325.033 88.8 325.033 82.4V10.6C325.033 4.46669 327.433 1.40002 332.233 1.40002C336.899 1.40002 339.233 4.46669 339.233 10.6V82.4C339.233 88.8 336.899 92 332.233 92Z" fill="white"/>
<path d="M426.501 28.6C434.101 28.6 437.902 25.0667 437.902 18V11.2C437.902 4.40002 440.235 1.00002 444.901 1.00002C449.835 1.00002 452.302 4.06669 452.302 10.2V77.8C452.302 82.6 450.968 86.0667 448.302 88.2C445.768 90.3334 441.968 91.4 436.901 91.4H420.302C414.968 91.4 410.968 90.3334 408.302 88.2C405.635 85.9334 404.302 82.2667 404.302 77.2L404.501 42.2C404.501 33.2667 409.702 28.7334 420.102 28.6H426.501ZM418.901 72.2C418.901 80.4667 421.568 84.6 426.901 84.6H429.501C435.101 84.6 437.902 80.5333 437.902 72.4V48.8C437.902 40 435.302 35.6 430.102 35.6H427.102C421.768 35.6 419.102 39.6667 419.102 47.8L418.901 72.2Z" fill="white"/>
<path d="M497.898 24.8H480.898C475.832 24.8 473.298 23.6 473.298 21.2C473.298 18.9334 475.698 17.8 480.498 17.8H504.298C514.165 17.8 519.098 22.8667 519.098 33V76.6C519.098 86.2 514.165 91 504.298 91H487.498C476.698 91 471.298 87.0667 471.298 79.2V53.2C471.298 49.8667 472.565 47.2 475.098 45.2C477.632 43.0667 481.565 42 486.898 42H497.498C502.298 42 504.698 39.6 504.698 34.8V32.8C504.698 27.4667 502.432 24.8 497.898 24.8ZM485.498 58.6V73.8C485.498 80.7334 488.765 84.2 495.298 84.2C501.565 84.2 504.698 80.7334 504.698 73.8V58.6C504.698 52.0667 501.565 48.8 495.298 48.8C488.765 48.8 485.498 52.0667 485.498 58.6Z" fill="white"/>
<path d="M571.695 72.4V37.8C571.695 31 574.162 27.6 579.095 27.6C583.762 27.6 586.095 30.9334 586.095 37.6V100.6C586.095 109.933 581.495 114.6 572.295 114.6H545.095C543.229 114.6 541.829 114.333 540.895 113.8C540.095 113.4 539.695 112.467 539.695 111C539.695 108.6 541.829 107.4 546.095 107.4H566.695C571.629 107.4 574.095 104.733 574.095 99.4C574.095 93.8 571.295 91 565.695 91H553.695H551.695C542.629 91 538.095 86.4667 538.095 77.4V36.8C538.095 30.6667 540.429 27.6 545.095 27.6C550.162 27.6 552.695 31.0667 552.695 38V72.6C552.695 80.2 555.429 84 560.895 84H563.695C569.029 84 571.695 80.1334 571.695 72.4Z" fill="white"/>
<path d="M629.092 72.6C627.892 75 626.892 77 626.092 78.6C625.425 80.0667 625.159 81.2 625.292 82C625.292 83.3334 626.025 84 627.492 84H644.092C649.692 84 652.492 85.2 652.492 87.6C652.492 89.8667 650.025 91 645.092 91H609.492C606.292 91 604.692 90.0667 604.692 88.2V87.8C605.092 87.2667 605.825 86.0667 606.892 84.2C607.959 82.2 609.492 79.6 611.492 76.4L627.292 46.8C629.692 42.6667 630.892 39.6667 630.892 37.8C630.892 36.3334 630.292 35.6 629.092 35.6H613.292C607.559 35.6 604.692 34.3334 604.692 31.8C604.692 29.5334 607.159 28.4 612.092 28.4H647.092C650.292 28.4 651.892 29.3334 651.892 31.2V31.4C651.492 32.4667 650.759 33.9334 649.692 35.8C648.759 37.5334 647.359 39.7334 645.492 42.4L629.092 72.6Z" fill="white"/>
</svg>
